<?xml version="1.0" encoding="UTF-8"?>
<svg version="1.1" viewBox="0 0 2048 1153" width="666" height="375" xmlns="http://www.w3.org/2000/svg">
<path transform="translate(842,81)" d="m0 0h18l14 5 21 1 16 4 10 2 13 2 10 4 13 8 18 7 12 9 11 11 7 8 11 17 7 13 2 3 3 1 2-6 7-11 7-12 11-13 12-12 15-10 12-3 16-10 10-4 13-2 12-3 14-3h17l13-5 2-1h20l8 3 10-1h15l17 5 13 2 10 2 10 5 27 5 16 8 7 3 10 2 12 5 6 4 6 7 3 7 1 13v17l1 5v20l-3 11-3 21-8 19-4 16-8 16-5 7-6 15-12 14-7 7-10 15-8 9-19 12-9 11-8 6 2 4 8 6 13 11 10 10 9 11 11 16 10 23 7 29 3 18 2 24 7 8 14 12 9 9 11 14 11 18 9 19 4 12 4 21 1 11v22l-2 21-5 21-5 12-10 19-11 16-5 8-13 43-7 22-5 21-9 25-8 15-5 9-12 16-9 10-13 13-16 12-18 11-14 7-16 11-14 9-13 8-14 8-19 10-16 7-10 6-7 7-20 15-13 8-15 8-27 9-14 3-10 1h-37l-20-4-21-7-23-11-15-10-14-11-12-10-15-8-16-7-20-11-16-10-18-12-17-11-16-8-17-11-13-11-13-12-7-8-10-12-12-21-5-11-7-18-7-28-16-50-4-13-11-17-7-11-8-16-10-30-2-12v-39l3-15 9-27 8-16 6-10 10-14 6-7 4-5 8-7 10-8 6-5 2-4 3-39 6-25 5-15 8-15 5-9 10-13 14-15 14-11 9-6-1-5-6-4-7-7-4-5-14-8-9-8-8-11-6-9-8-8-8-10-8-19-10-14-3-6-3-16-8-16-2-8-2-18-4-9-1-6v-9l3-10 1-2v-8l-1-4v-14l5-12 4-5 14-7 6-2 10-2 18-10 6-2 22-3 7-3 10-4 17-2 17-6h18l9 1zm-8 58-8 4h-14l-9-1-12 9h-9l-20-4-3 5v2l-4 2-9 3-18 3 2 9 1 4v10l-2 7v5l9 11 1 3v8l-2 6 1 6 6 8 3 3 1 3v9l-1 3 5 6 8 7 5 8 1 10 9 6 8 5 7 7 2 8 15 8 8 4 4 9 5 1 16 2 9 4 6 5 3 4h11l17-3 16-4 16-8 9-6 9-9 7-11 1-7-7-8-14-12-11-9-11-8-8-6-16-11-10-6-17-11-24-14-25-13-8-4-10-7-4-6v-8l2-5 3-1h12l14 5 11 5 20 8 20 9 23 11 11 6 19 11 14 9 12 8 14 10 13 9 7 5 5-2 5-4 7-10 3-7 1-13-2-16-8-21-7-13-7-10-7-6-9 1-11-6-8-8-3-2h-16l-7-3-7-5-9 1h-12l-10-5h-7l-13 2-11-4zm351 2-13 5h-11l-8-1-7 4-3 3-5 1h-10l-6-1-12 12-9 5h-11l-6 5-11 18-11 26-2 13 1 15 6 12 7 9 5 3 4-1 10-8 11-8 24-16 14-9 22-12 15-8 17-8 15-7 14-6 15-5 12-6 7-2h11l4 3 2 8-3 9-16 10-14 6-5 4-16 8-5 4-10 5-11 7-8 5-5 4-9 5-16 11-8 6-10 8-11 9-9 8-5 4-3 5 1 9 6 9 10 10 16 9 12 5 22 5 9 1h9l5-7 8-5 9-2 17-2 4-8 3-3 16-8 4-3 2-8 5-5 8-6 7-4 3-3 2-11 6-8 10-8 1-5v-10l2-5 6-5 3-5-1-7-1-2v-11l4-6 7-8-1-5-2-5v-11l3-9v-4l-9-2-13-1-9-6-3-5h-7l-12 3h-10l-11-8h-25l-4-1h-17l-11 1-7-2zm-368 55-2 2 10 7 21 12 16 9h4l3-4-1-4-15-9-21-9-10-4zm441 433-27 9-12 5-23 8-24 12-30 12-28 11-15 6-7 4-7 8-2 2 1 5 10 10 32 16 4 1 14-1 35-7 31-6 22-2 8-4 13-11 4-6 5-6 5-8 8-9 7-15 1-4v-23l-4-4-8-2zm-473 0-13 2-6 3-3 7v11l3 11 9 18 7 8 5 8 9 11 11 10 8 4 24 2 24 5 33 6 15 3h7l12-5 16-8 8-6 9-7 2-3-1-5-12-11-14-6-16-6-15-6-13-5-22-9-16-8-12-5-22-8-11-5-18-5z" fill="#161416"/>
<path transform="translate(842,81)" d="m0 0h18l14 5 21 1 16 4 10 2 13 2 10 4 13 8 18 7 12 9 11 11 7 8 11 17 7 13 2 3 3 1 2-6 7-11 7-12 11-13 12-12 15-10 12-3 16-10 10-4 13-2 12-3 14-3h17l13-5 2-1h20l8 3 10-1h15l17 5 13 2 10 2 10 5 27 5 16 8 7 3 10 2 12 5 6 4 6 7 3 7 1 13v17l1 5v20l-3 11-3 21-8 19-4 16-8 16-5 7-6 15-12 14-7 7-10 15-8 9-19 12-9 11-8 6 2 4 8 6 13 11 10 10 9 11 11 16 10 23 7 29 3 18 2 24 7 8 14 12 9 9 11 14 11 18 9 19 4 12 4 21 1 11v22l-2 21-5 21-5 12-10 19-11 16-5 8-13 43-7 22-5 21-9 25-8 15-5 9-12 16-9 10-13 13-16 12-18 11-14 7-16 11-14 9-13 8-14 8-19 10-16 7-10 6-7 7-20 15-13 8-15 8-27 9-14 3-10 1h-37l-20-4-21-7-23-11-15-10-14-11-12-10-15-8-16-7-20-11-16-10-18-12-17-11-16-8-17-11-13-11-13-12-7-8-10-12-12-21-5-11-7-18-7-28-16-50-4-13-11-17-7-11-8-16-10-30-2-12v-39l3-15 9-27 8-16 6-10 10-14 6-7 4-5 8-7 10-8 6-5 2-4 3-39 6-25 5-15 8-15 5-9 10-13 14-15 14-11 9-6-1-5-6-4-7-7-4-5-14-8-9-8-8-11-6-9-8-8-8-10-8-19-10-14-3-6-3-16-8-16-2-8-2-18-4-9-1-6v-9l3-10 1-2v-8l-1-4v-14l5-12 4-5 14-7 6-2 10-2 18-10 6-2 22-3 7-3 10-4 17-2 17-6h18l9 1zm7 12-12 4-13-1h-17l-13 5-25 5-9 4-21 3-26 13-16 3-8 4-6 8-1 2v9l2 7v11l-4 11 1 10 5 12 1 17 4 11 7 11 3 16 7 13 5 7 4 13 8 11 12 10 9 16 9 8 16 9 1 2h2l2 5 5 6 11 7 10 5-1 5-20 14-10 8-14 13-7 8-10 15-8 16-7 21-5 26-3 29-3 8-13 13-8 7-13 13-16 24-7 15-6 18-3 15-2 14v18l3 23 6 20 10 21 13 18 7 14 13 41 7 22 7 29 7 18 9 17 8 12 8 10 15 15 8 7 14 10 19 10 8 4 17 12 27 18 21 11 20 8 14 8 26 22 16 10 13 6 16 7 16 4 12 2 12 1h21l21-3 15-4 24-10 14-8 14-11 10-9 16-11 17-8 23-11 14-8 13-9 27-18 25-13 14-10 17-16 8-8 14-20 8-14 5-11 6-18 6-25 12-35 6-24 6-12 10-14 8-13 7-16 6-18 2-10 1-12v-22l-3-18-7-21-9-21-6-10-13-17-7-8h-2v-2l-11-9-8-7-5-10-2-13-3-28-4-18-7-19-8-17-10-14-25-25-24-16-2-5 3-3 15-8 8-8 6-8 18-10 6-7 7-13 8-8 8-7 5-8 4-12 13-20 2-6 2-13 7-12 3-9v-15l5-11 1-5v-8l-4-12v-7l1-4v-14l-4-9-7-5-10-2-12-2-10-7-11-5-16-2-10-2-8-4-16-3-9-2-11-4h-16l-3 1h-11l-10-4h-7l-16 5-3 1h-20l-17 6-16 1-10 3-8 6-7 6-8 3-11 2-11 9-10 10-8 10-11 18-10 19-4 10-4 1-4-8-7-16-11-19-9-12-11-12-8-7-8-4-12-2-6-4-7-7-10-5-10-1-11-1-17-6h-20l-14-5z" fill="#C40E79"/>
<path transform="translate(1191,120)" d="m0 0 5 1 3 9 6-1 19-8 10-1-1 9-1 3 16-3 11-2h7l1 1-1 11 10-1 14-3h20l3 1-1 6-2 5 5 1 30 2 1 5-9 19-1 9 11 3 1 5-3 6-16 16v4l12 4-1 5-11 12-9 9v3l7 3 1 4-7 8-15 12-2 1v3l7 3v5l-11 9-21 11v3l5 4-1 5-14 7-15 5h-3l1 5 1 6-5 3-15 3-20 2-1 3 1 8-2 1h-16l-23-3-23-6-12-5-11-7-13-11-10-14-4-10v-7l6-9 14-13 22-18 11-8 22-15 20-12 10-7 2-3-5-3-12 5-27 14-18 10-26 17-14 10-12 9-9 5-7-1-8-6-7-6-7-11-5-14v-17l3-14 6-18 11-20 12-17 7-8 5-1 5 6 5-1 9-10 12-12 3-1 3 3 2 8 6-1 2-4 8-7 7-5h5l6 9 5-1 10-8zm-6 21-13 5h-11l-8-1-7 4-3 3-5 1h-10l-6-1-12 12-9 5h-11l-6 5-11 18-11 26-2 13 1 15 6 12 7 9 5 3 4-1 10-8 11-8 24-16 14-9 22-12 15-8 17-8 15-7 14-6 15-5 12-6 7-2h11l4 3 2 8-3 9-16 10-14 6-5 4-16 8-5 4-10 5-11 7-8 5-5 4-9 5-16 11-8 6-10 8-11 9-9 8-5 4-3 5 1 9 6 9 10 10 16 9 12 5 22 5 9 1h9l5-7 8-5 9-2 17-2 4-8 3-3 16-8 4-3 2-8 5-5 8-6 7-4 3-3 2-11 6-8 10-8 1-5v-10l2-5 6-5 3-5-1-7-1-2v-11l4-6 7-8-1-5-2-5v-11l3-9v-4l-9-2-13-1-9-6-3-5h-7l-12 3h-10l-11-8h-25l-4-1h-17l-11 1-7-2z" fill="#C40E79"/>
<path transform="translate(821,120)" d="m0 0h7l16 6 9 5 5-1 1-8 2-2 5 1 15 10 5 4 5 1 2-8 2-3 5 1 11 8 6 7 5 1 5-10 5 1 16 17 6 7 4-1 3-5 5-1 7 7 9 12 11 17 5 12 4 10 4 15v21l-3 12-6 11-9 10-11 6h-6l-16-12-14-10-19-12-14-9-18-10-14-7-7-2-4-4-12-7-21-9-10-4h-5v2l15 9 21 12 9 5 4 1 5 6 16 10 17 12 9 6 11 9 14 12 8 7 8 9 3 5-1 8-8 16-9 10-11 9-10 6-12 5-21 5-22 3h-19l-2-3 2-5v-3l-2-1-31-4-8-3 1-6 1-5-25-9-8-5-1-3 6-5-1-4-16-8-11-7-5-4v-5l9-3-2-4-6-4-10-9-6-5-1-5 8-4-2-5-20-20 1-5 12-3-1-5-14-13-5-8v-5l2-1 12-1-2-8-8-18-2-3 1-4 13-2 23-1-2-5-2-3 1-4 3-1h19l22 4 2-2-1-9 1-1h9l25 5-2-6zm13 19-8 4h-14l-9-1-12 9h-9l-20-4-3 5v2l-4 2-9 3-18 3 2 9 1 4v10l-2 7v5l9 11 1 3v8l-2 6 1 6 6 8 3 3 1 3v9l-1 3 5 6 8 7 5 8 1 10 9 6 8 5 7 7 2 8 15 8 8 4 4 9 5 1 16 2 9 4 6 5 3 4h11l17-3 16-4 16-8 9-6 9-9 7-11 1-7-7-8-14-12-11-9-11-8-8-6-16-11-10-6-17-11-24-14-25-13-8-4-10-7-4-6v-8l2-5 3-1h12l14 5 11 5 20 8 20 9 23 11 11 6 19 11 14 9 12 8 14 10 13 9 7 5 5-2 5-4 7-10 3-7 1-13-2-16-8-21-7-13-7-10-7-6-9 1-11-6-8-8-3-2h-16l-7-3-7-5-9 1h-12l-10-5h-7l-13 2-11-4z" fill="#C40E79"/>
<path transform="translate(1259,614)" d="m0 0 5 1 6 3 14 3 6 5 4 7 1 15-1 13-5 18-1 9-5 3-5 2-2 9-7 4-6 8-10 10-3 2 1 7-9 2-28 2-38 6-28 5-9 1h-11l-10-3-20-9-14-4-1-1-1-8-8-3-6-2 1-13-3-3 1-4 10-4 2-2v-6l9-3 19-7 21-9 26-10 25-12 4-5 15-4 24-8 34-13zm-1 15-27 9-12 5-23 8-24 12-30 12-28 11-15 6-7 4-7 8-2 2 1 5 10 10 32 16 4 1 14-1 35-7 31-6 22-2 8-4 13-11 4-6 5-6 5-8 8-9 7-15 1-4v-23l-4-4-8-2z" fill="#C40D78"/>
<path transform="translate(783,613)" d="m0 0 5 1 10 5 14 4 26 11 17 4 9 2 3 4v2l6 2 17 8 36 14 29 12 12 4 3 8 12 6-1 4-2 2v7l1 6-9 3-5 3v7l-2 2-20 6-10 5-12 4h-16l-57-10-26-3-22-2-5-2 1-7-9-8-9-11-8-5 1-7-9-4-3-2v-11l-5-13-2-12v-9l2-11 3-6 6-5 5-2 11-2zm2 16-13 2-6 3-3 7v11l3 11 9 18 7 8 5 8 9 11 11 10 8 4 24 2 24 5 33 6 15 3h7l12-5 16-8 8-6 9-7 2-3-1-5-12-11-14-6-16-6-15-6-13-5-22-9-16-8-12-5-22-8-11-5-18-5z" fill="#C40E79"/>
<path transform="translate(1044,789)" d="m0 0 7 1 7 9 10 21 2 7v8l-3 5-8 7-5 2-8-1-5-5-3-7-1-5v-15l2-19 4-7z" fill="#C40C78"/>
<path transform="translate(999,789)" d="m0 0h6l3 4 2 8 1 32-3 10-8 5h-8l-11-7-2-3v-10l5-14 8-16 4-6z" fill="#C40C78"/>
<path transform="translate(1050,817)" d="m0 0 3 3 3 6v8l-4 2-2-3-1-7v-8z" fill="#161416"/>
</svg>
